<svg width="35" height="35" viewBox="0 0 35 35" fill="none" xmlns="http://www.w3.org/2000/svg">
<g clip-path="url(#clip0)">
<path d="M17.5 0C7.83366 0 0 7.83366 0 17.5C0 22.7155 2.28051 27.4006 5.90453 30.6112C8.99803 33.3396 13.0561 35 17.5 35C21.9508 35 26.0089 33.3396 29.0955 30.6043C32.7195 27.4006 35 22.7155 35 17.5C35 7.83366 27.1663 0 17.5 0Z" fill="#89D6F7"/>
<path d="M27.7252 29.185C26.8295 28.5167 25.2036 27.4075 23.4329 26.5876C21.6622 25.7746 20.6219 23.8661 20.9043 21.9439C20.9043 21.9163 20.9112 21.8888 20.9181 21.8543C20.9181 21.8543 24.9486 19.126 24.3906 16.4665C24.3906 16.4665 24.5146 16.4734 24.7006 16.4596C26.4782 16.2943 26.5884 13.6486 24.8315 13.3661C24.8177 13.3661 24.7971 13.3593 24.7833 13.3593L24.7282 13.0699C25.2656 11.189 26.5746 5.49114 22.613 6.04232C22.613 6.04232 19.7675 1.33661 13.7528 3.60334C7.73112 5.86319 9.30198 11.2579 9.30198 11.2579L10.0461 13.4075C8.42698 13.8071 8.57856 16.3081 10.301 16.4665C10.487 16.4803 10.6179 16.4734 10.6179 16.4734C10.053 19.1329 14.0835 21.8612 14.0835 21.8612C14.0904 21.8957 14.0904 21.9232 14.0973 21.9508C14.3728 23.873 13.3325 25.7815 11.5687 26.5945C9.79115 27.4144 8.17206 28.5305 7.27639 29.1919C6.73899 29.5846 6.2636 30.06 5.89844 30.6181C8.99883 33.3396 13.0569 35 17.5008 35C21.9516 35 26.0097 33.3396 29.0963 30.6043C28.738 30.0531 28.2626 29.5778 27.7252 29.185Z" fill="#41596B"/>
</g>
<defs>
<clipPath id="clip0">
<rect width="35" height="35" fill="white"/>
</clipPath>
</defs>
</svg>
